<?xml version="1.0" encoding="UTF-8" standalone="no"?>
<svg width="270.933mm" height="70.3792mm"
 xmlns="http://www.w3.org/2000/svg" xmlns:xlink="http://www.w3.org/1999/xlink"  version="1.2" baseProfile="tiny">
<desc>Created by EvoPdf</desc>
<defs>
</defs>
<g fill="none" stroke="black" stroke-width="1" fill-rule="evenodd" stroke-linecap="square" stroke-linejoin="bevel" >

<g fill="#000000" fill-opacity="1" stroke="#000000" stroke-opacity="1" stroke-width="1" stroke-linecap="square" stroke-linejoin="miter" stroke-miterlimit="2" transform="matrix(1,0,0,1,0,0)"
>
</g>

<g fill="#000000" fill-opacity="1" stroke="#000000" stroke-opacity="1" stroke-width="1" stroke-linecap="square" stroke-linejoin="miter" stroke-miterlimit="2" transform="matrix(1,0,0,1,0,0)"
>
</g>

<g fill="#000000" fill-opacity="1" stroke="#000000" stroke-opacity="1" stroke-width="1" stroke-linecap="square" stroke-linejoin="miter" stroke-miterlimit="2" transform="matrix(1,0,0,1,0,0)"
>
</g>

<g fill="#000000" fill-opacity="1" stroke="#000000" stroke-opacity="1" stroke-width="1" stroke-linecap="square" stroke-linejoin="miter" stroke-miterlimit="2" transform="matrix(1,0,0,1,0,0)"
>
</g>

<g fill="#000000" fill-opacity="1" stroke="#000000" stroke-opacity="1" stroke-width="1" stroke-linecap="square" stroke-linejoin="miter" stroke-miterlimit="2" transform="matrix(2,0,0,2,8,8)"
>
</g>

<g fill="none" stroke="#bf0000" stroke-opacity="1" stroke-dasharray="61.3161,61.3161" stroke-dashoffset="0" stroke-width="3" stroke-linecap="round" stroke-linejoin="round" transform="matrix(2,0,0,2,8,8)"
>
<path vector-effect="none" fill-rule="nonzero" d="M53.5,21.5 C54.12,22.62 54.19,23.73 53.75,25.5 C49.62,42 39.5,61 25.25,74.25 "/>
</g>

<g fill="#000000" fill-opacity="1" stroke="#000000" stroke-opacity="1" stroke-width="1" stroke-linecap="square" stroke-linejoin="miter" stroke-miterlimit="2" transform="matrix(2,0,0,2,8,8)"
>
</g>

<g fill="#bf0000" fill-opacity="1" stroke="#000000" stroke-opacity="1" stroke-width="1" stroke-linecap="square" stroke-linejoin="miter" stroke-miterlimit="2" transform="matrix(2,0,0,2,8,8)"
>
</g>

<g fill="#bf0000" fill-opacity="1" stroke="#bf0000" stroke-opacity="1" stroke-width="1" stroke-linecap="square" stroke-linejoin="bevel" transform="matrix(1,0,0,1,8,8)"
>
<text fill="#bf0000" fill-opacity="1" stroke="none" xml:space="preserve" x="87" y="34.7656" font-family="Arial" font-size="16" font-weight="400" font-style="normal" 
 >1</text>
</g>

<g fill="#bf0000" fill-opacity="1" stroke="#000000" stroke-opacity="1" stroke-width="1" stroke-linecap="square" stroke-linejoin="miter" stroke-miterlimit="2" transform="matrix(2,0,0,2,8,8)"
>
</g>

<g fill="#000000" fill-opacity="1" stroke="#000000" stroke-opacity="1" stroke-width="1" stroke-linecap="square" stroke-linejoin="miter" stroke-miterlimit="2" transform="matrix(2,0,0,2,8,8)"
>
</g>

<g fill="#000000" fill-opacity="1" stroke="#000000" stroke-opacity="1" stroke-width="1" stroke-linecap="square" stroke-linejoin="miter" stroke-miterlimit="2" transform="matrix(2,0,0,2,8,8)"
>
</g>

<g fill="#000000" fill-opacity="1" stroke="#000000" stroke-opacity="1" stroke-width="1" stroke-linecap="square" stroke-linejoin="miter" stroke-miterlimit="2" transform="matrix(2,0,0,2,8,8)"
>
</g>

<g fill="#000000" fill-opacity="1" stroke="#000000" stroke-opacity="1" stroke-width="1" stroke-linecap="square" stroke-linejoin="miter" stroke-miterlimit="2" transform="matrix(2,0,0,2,8,8)"
>
</g>

<g fill="none" stroke="#bf5600" stroke-opacity="1" stroke-dasharray="85.0263,85.0263" stroke-dashoffset="0" stroke-width="3" stroke-linecap="round" stroke-linejoin="round" transform="matrix(2,0,0,2,8,8)"
>
<path vector-effect="none" fill-rule="nonzero" d="M13,42.15 C14.9,42.71 18.9,42.67 20.79,42.49 C44.2,40.25 70.55,36.75 88.46,36.19 C91.7,36.09 94.91,36.5 97.63,37 "/>
</g>

<g fill="#000000" fill-opacity="1" stroke="#000000" stroke-opacity="1" stroke-width="1" stroke-linecap="square" stroke-linejoin="miter" stroke-miterlimit="2" transform="matrix(2,0,0,2,8,8)"
>
</g>

<g fill="#bf5600" fill-opacity="1" stroke="#000000" stroke-opacity="1" stroke-width="1" stroke-linecap="square" stroke-linejoin="miter" stroke-miterlimit="2" transform="matrix(2,0,0,2,8,8)"
>
</g>

<g fill="#bf5600" fill-opacity="1" stroke="#bf5600" stroke-opacity="1" stroke-width="1" stroke-linecap="square" stroke-linejoin="bevel" transform="matrix(1,0,0,1,8,8)"
>
<text fill="#bf5600" fill-opacity="1" stroke="none" xml:space="preserve" x="12" y="91.7656" font-family="Arial" font-size="16" font-weight="400" font-style="normal" 
 >2</text>
</g>

<g fill="#bf5600" fill-opacity="1" stroke="#000000" stroke-opacity="1" stroke-width="1" stroke-linecap="square" stroke-linejoin="miter" stroke-miterlimit="2" transform="matrix(2,0,0,2,8,8)"
>
</g>

<g fill="#000000" fill-opacity="1" stroke="#000000" stroke-opacity="1" stroke-width="1" stroke-linecap="square" stroke-linejoin="miter" stroke-miterlimit="2" transform="matrix(2,0,0,2,8,8)"
>
</g>

<g fill="#000000" fill-opacity="1" stroke="#000000" stroke-opacity="1" stroke-width="1" stroke-linecap="square" stroke-linejoin="miter" stroke-miterlimit="2" transform="matrix(2,0,0,2,8,8)"
>
</g>

<g fill="#000000" fill-opacity="1" stroke="#000000" stroke-opacity="1" stroke-width="1" stroke-linecap="square" stroke-linejoin="miter" stroke-miterlimit="2" transform="matrix(2,0,0,2,8,8)"
>
</g>

<g fill="#000000" fill-opacity="1" stroke="#000000" stroke-opacity="1" stroke-width="1" stroke-linecap="square" stroke-linejoin="miter" stroke-miterlimit="2" transform="matrix(2,0,0,2,8,8)"
>
</g>

<g fill="none" stroke="#bfac00" stroke-opacity="1" stroke-dasharray="29.9048,29.9048" stroke-dashoffset="0" stroke-width="3" stroke-linecap="round" stroke-linejoin="round" transform="matrix(2,0,0,2,8,8)"
>
<path vector-effect="none" fill-rule="nonzero" d="M41.75,66.5 C42.5,67.25 43.1,68.43 43.29,69.45 C44.23,74.45 45.67,86.11 46.36,92.21 C46.6,94.36 46.75,95.01 46.75,95.75 "/>
</g>

<g fill="#000000" fill-opacity="1" stroke="#000000" stroke-opacity="1" stroke-width="1" stroke-linecap="square" stroke-linejoin="miter" stroke-miterlimit="2" transform="matrix(2,0,0,2,8,8)"
>
</g>

<g fill="#bfac00" fill-opacity="1" stroke="#000000" stroke-opacity="1" stroke-width="1" stroke-linecap="square" stroke-linejoin="miter" stroke-miterlimit="2" transform="matrix(2,0,0,2,8,8)"
>
</g>

<g fill="#bfac00" fill-opacity="1" stroke="#bfac00" stroke-opacity="1" stroke-width="1" stroke-linecap="square" stroke-linejoin="bevel" transform="matrix(1,0,0,1,8,8)"
>
<text fill="#bfac00" fill-opacity="1" stroke="none" xml:space="preserve" x="70" y="162.766" font-family="Arial" font-size="16" font-weight="400" font-style="normal" 
 >3</text>
</g>

<g fill="#bfac00" fill-opacity="1" stroke="#000000" stroke-opacity="1" stroke-width="1" stroke-linecap="square" stroke-linejoin="miter" stroke-miterlimit="2" transform="matrix(2,0,0,2,8,8)"
>
</g>

<g fill="#000000" fill-opacity="1" stroke="#000000" stroke-opacity="1" stroke-width="1" stroke-linecap="square" stroke-linejoin="miter" stroke-miterlimit="2" transform="matrix(2,0,0,2,8,8)"
>
</g>

<g fill="#000000" fill-opacity="1" stroke="#000000" stroke-opacity="1" stroke-width="1" stroke-linecap="square" stroke-linejoin="miter" stroke-miterlimit="2" transform="matrix(2,0,0,2,8,8)"
>
</g>

<g fill="#000000" fill-opacity="1" stroke="#000000" stroke-opacity="1" stroke-width="1" stroke-linecap="square" stroke-linejoin="miter" stroke-miterlimit="2" transform="matrix(2,0,0,2,8,8)"
>
</g>

<g fill="#000000" fill-opacity="1" stroke="#000000" stroke-opacity="1" stroke-width="1" stroke-linecap="square" stroke-linejoin="miter" stroke-miterlimit="2" transform="matrix(2,0,0,2,8,8)"
>
</g>

<g fill="none" stroke="#7cbf00" stroke-opacity="1" stroke-dasharray="65.46,65.46" stroke-dashoffset="0" stroke-width="3" stroke-linecap="round" stroke-linejoin="round" transform="matrix(2,0,0,2,8,8)"
>
<path vector-effect="none" fill-rule="nonzero" d="M43.25,68 C48.5,67.5 73,64.75 80.25,64.25 C82,64.13 83.49,65.77 83.25,67 C82.25,72.12 79.87,85 78.75,90.25 "/>
</g>

<g fill="#000000" fill-opacity="1" stroke="#000000" stroke-opacity="1" stroke-width="1" stroke-linecap="square" stroke-linejoin="miter" stroke-miterlimit="2" transform="matrix(2,0,0,2,8,8)"
>
</g>

<g fill="#7cbf00" fill-opacity="1" stroke="#000000" stroke-opacity="1" stroke-width="1" stroke-linecap="square" stroke-linejoin="miter" stroke-miterlimit="2" transform="matrix(2,0,0,2,8,8)"
>
</g>

<g fill="#7cbf00" fill-opacity="1" stroke="#7cbf00" stroke-opacity="1" stroke-width="1" stroke-linecap="square" stroke-linejoin="bevel" transform="matrix(1,0,0,1,8,8)"
>
<text fill="#7cbf00" fill-opacity="1" stroke="none" xml:space="preserve" x="87" y="134.5" font-family="Arial" font-size="16" font-weight="400" font-style="normal" 
 >4</text>
</g>

<g fill="#7cbf00" fill-opacity="1" stroke="#000000" stroke-opacity="1" stroke-width="1" stroke-linecap="square" stroke-linejoin="miter" stroke-miterlimit="2" transform="matrix(2,0,0,2,8,8)"
>
</g>

<g fill="#000000" fill-opacity="1" stroke="#000000" stroke-opacity="1" stroke-width="1" stroke-linecap="square" stroke-linejoin="miter" stroke-miterlimit="2" transform="matrix(2,0,0,2,8,8)"
>
</g>

<g fill="#000000" fill-opacity="1" stroke="#000000" stroke-opacity="1" stroke-width="1" stroke-linecap="square" stroke-linejoin="miter" stroke-miterlimit="2" transform="matrix(2,0,0,2,8,8)"
>
</g>

<g fill="#000000" fill-opacity="1" stroke="#000000" stroke-opacity="1" stroke-width="1" stroke-linecap="square" stroke-linejoin="miter" stroke-miterlimit="2" transform="matrix(2,0,0,2,8,8)"
>
</g>

<g fill="#000000" fill-opacity="1" stroke="#000000" stroke-opacity="1" stroke-width="1" stroke-linecap="square" stroke-linejoin="miter" stroke-miterlimit="2" transform="matrix(2,0,0,2,8,8)"
>
</g>

<g fill="none" stroke="#26bf00" stroke-opacity="1" stroke-dasharray="34.0971,34.0971" stroke-dashoffset="0" stroke-width="3" stroke-linecap="round" stroke-linejoin="round" transform="matrix(2,0,0,2,8,8)"
>
<path vector-effect="none" fill-rule="nonzero" d="M47,93.25 C52.79,93.05 66.51,91.67 75.25,91.02 C77.46,90.85 79.43,90.75 81,90.75 "/>
</g>

<g fill="#000000" fill-opacity="1" stroke="#000000" stroke-opacity="1" stroke-width="1" stroke-linecap="square" stroke-linejoin="miter" stroke-miterlimit="2" transform="matrix(2,0,0,2,8,8)"
>
</g>

<g fill="#26bf00" fill-opacity="1" stroke="#000000" stroke-opacity="1" stroke-width="1" stroke-linecap="square" stroke-linejoin="miter" stroke-miterlimit="2" transform="matrix(2,0,0,2,8,8)"
>
</g>

<g fill="#26bf00" fill-opacity="1" stroke="#26bf00" stroke-opacity="1" stroke-width="1" stroke-linecap="square" stroke-linejoin="bevel" transform="matrix(1,0,0,1,8,8)"
>
<text fill="#26bf00" fill-opacity="1" stroke="none" xml:space="preserve" x="99" y="184.375" font-family="Arial" font-size="16" font-weight="400" font-style="normal" 
 >5</text>
</g>

<g fill="#26bf00" fill-opacity="1" stroke="#000000" stroke-opacity="1" stroke-width="1" stroke-linecap="square" stroke-linejoin="miter" stroke-miterlimit="2" transform="matrix(2,0,0,2,8,8)"
>
</g>

<g fill="#000000" fill-opacity="1" stroke="#000000" stroke-opacity="1" stroke-width="1" stroke-linecap="square" stroke-linejoin="miter" stroke-miterlimit="2" transform="matrix(2,0,0,2,8,8)"
>
</g>

<g fill="#000000" fill-opacity="1" stroke="#000000" stroke-opacity="1" stroke-width="1" stroke-linecap="square" stroke-linejoin="miter" stroke-miterlimit="2" transform="matrix(2,0,0,2,8,8)"
>
</g>

<g fill="#000000" fill-opacity="1" stroke="#000000" stroke-opacity="1" stroke-width="1" stroke-linecap="square" stroke-linejoin="miter" stroke-miterlimit="2" transform="matrix(2,0,0,2,8,8)"
>
</g>

<g fill="#000000" fill-opacity="1" stroke="#000000" stroke-opacity="1" stroke-width="1" stroke-linecap="square" stroke-linejoin="miter" stroke-miterlimit="2" transform="matrix(2,0,0,2,8,8)"
>
</g>

<g fill="#000000" fill-opacity="1" stroke="#000000" stroke-opacity="1" stroke-width="1" stroke-linecap="square" stroke-linejoin="miter" stroke-miterlimit="2" transform="matrix(2,0,0,2,8,8)"
>
</g>

<g fill="#000000" fill-opacity="1" stroke="#000000" stroke-opacity="1" stroke-width="1" stroke-linecap="square" stroke-linejoin="miter" stroke-miterlimit="2" transform="matrix(1,0,0,1,0,0)"
>
</g>

<g fill="#000000" fill-opacity="1" stroke="#000000" stroke-opacity="1" stroke-width="1" stroke-linecap="square" stroke-linejoin="miter" stroke-miterlimit="2" transform="matrix(1,0,0,1,0,0)"
>
</g>

<g fill="#000000" fill-opacity="1" stroke="#000000" stroke-opacity="1" stroke-width="1" stroke-linecap="square" stroke-linejoin="miter" stroke-miterlimit="2" transform="matrix(1,0,0,1,0,0)"
>
</g>

<g fill="#000000" fill-opacity="1" stroke="#000000" stroke-opacity="1" stroke-width="1" stroke-linecap="square" stroke-linejoin="miter" stroke-miterlimit="2" transform="matrix(1,0,0,1,0,0)"
>
</g>

<g fill="#000000" fill-opacity="1" stroke="#000000" stroke-opacity="1" stroke-width="1" stroke-linecap="square" stroke-linejoin="miter" stroke-miterlimit="2" transform="matrix(2,0,0,2,8,8)"
>
</g>

<g fill="#000000" fill-opacity="1" stroke="#000000" stroke-opacity="1" stroke-width="1" stroke-linecap="square" stroke-linejoin="miter" stroke-miterlimit="2" transform="matrix(2,0,0,2,8,8)"
>
</g>

<g fill="#000000" fill-opacity="1" stroke="#000000" stroke-opacity="1" stroke-width="1" stroke-linecap="square" stroke-linejoin="miter" stroke-miterlimit="2" transform="matrix(2,0,0,2,8,8)"
>
</g>

<g fill="#000000" fill-opacity="1" stroke="#000000" stroke-opacity="1" stroke-width="1" stroke-linecap="square" stroke-linejoin="miter" stroke-miterlimit="2" transform="matrix(2,0,0,2,8,8)"
>
</g>

<g fill="#000000" fill-opacity="1" stroke="#000000" stroke-opacity="1" stroke-width="1" stroke-linecap="square" stroke-linejoin="miter" stroke-miterlimit="2" transform="matrix(2,0,0,2,8,8)"
>
</g>

<g fill="#000000" fill-opacity="1" stroke="#000000" stroke-opacity="1" stroke-width="1" stroke-linecap="square" stroke-linejoin="miter" stroke-miterlimit="2" transform="matrix(2,0,0,2,8,8)"
>
</g>

<g fill="#000000" fill-opacity="1" stroke="#000000" stroke-opacity="1" stroke-width="1" stroke-linecap="square" stroke-linejoin="miter" stroke-miterlimit="2" transform="matrix(2,0,0,2,8,8)"
>
</g>

<g fill="#000000" fill-opacity="1" stroke="#000000" stroke-opacity="1" stroke-width="1" stroke-linecap="square" stroke-linejoin="miter" stroke-miterlimit="2" transform="matrix(1,0,0,1,0,0)"
>
</g>

<g fill="#000000" fill-opacity="1" stroke="#000000" stroke-opacity="1" stroke-width="1" stroke-linecap="square" stroke-linejoin="miter" stroke-miterlimit="2" transform="matrix(1,0,0,1,0,0)"
>
</g>

<g fill="#000000" fill-opacity="1" stroke="#000000" stroke-opacity="1" stroke-width="1" stroke-linecap="square" stroke-linejoin="miter" stroke-miterlimit="2" transform="matrix(1,0,0,1,0,0)"
>
</g>

<g fill="#000000" fill-opacity="1" stroke="#000000" stroke-opacity="1" stroke-width="1" stroke-linecap="square" stroke-linejoin="miter" stroke-miterlimit="2" transform="matrix(1,0,0,1,0,0)"
>
</g>

<g fill="#000000" fill-opacity="1" stroke="#000000" stroke-opacity="1" stroke-width="1" stroke-linecap="square" stroke-linejoin="miter" stroke-miterlimit="2" transform="matrix(1,0,0,1,0,0)"
>
</g>

<g fill="#000000" fill-opacity="1" stroke="#000000" stroke-opacity="1" stroke-width="1" stroke-linecap="square" stroke-linejoin="miter" stroke-miterlimit="2" transform="matrix(1,0,0,1,0,0)"
>
</g>
</g>
</svg>
